# xmcd
#
# Track frame offsets:
#	150
#	21110
#	29108
#	40099
#	49260
#	55397
#	60809
#	68535
#	74374
#	80146
#	89830
#	95096
#	102966
#	113330
#	121372
#	127870
#	142339
#	154854
#	171509
#	180618
#	195226
#	199396
#	207676
#
# Disc length: 2900 seconds
#
# Revision: 0
# Processed by: cddbd v1.5.2PL0 Copyright (c) Steve Scherf et al.
# Submitted via: EasyCDDAExtractor 2010.6.0.0
#
DISCID=580b5217
DTITLE=Vladimir Vysotsky - 08 На Нейтральной Полосе (На Концертах, №8)
DYEAR=2002
DGENRE=Vocal
TTITLE0=Один Музыкант Объяснил Мне Пространно…
TTITLE1=Песня О Нейтральной Полосе
TTITLE2=У Меня Было Сорок Фамилий…
TTITLE3=Перед Выездом В Загранку…
TTITLE4=Передо Мной Любой Факир - Ну Просто Карлик…
TTITLE5=Проложите, Проложите…
TTITLE6=Счетчик Щелкает
TTITLE7=Подумаешь - С Женой Не Очень Ладно…
TTITLE8=Ну О Чем С Тобою Говорить!…
TTITLE9=Про Черта
TTITLE10=В Этом Доме Большом Раньше Пьянка Была…
TTITLE11=Песня Рябого
TTITLE12=Сколько Чудес За Туманами Кроется…
TTITLE13=Случай На Шахте
TTITLE14=Пока Вы Здесь В Ванночке С Кафелем…
TTITLE15="Рядовой Борисов!…"
TTITLE16=И Вкусы И Запросы Мои - Странны…
TTITLE17=Песня О Нотах
TTITLE18=Мне Каждый Вечер Зажигают Свечи…
TTITLE19=Романс (Из Кинофильма "Опасные Гастроли")
TTITLE20=Сыт Я По Горло, До Подбородка…
TTITLE21=Дела
TTITLE22=Давно Смолкли Залпы Орудий…
EXTD=
EXTT0=
EXTT1=
EXTT2=
EXTT3=
EXTT4=
EXTT5=
EXTT6=
EXTT7=
EXTT8=
EXTT9=
EXTT10=
EXTT11=
EXTT12=
EXTT13=
EXTT14=
EXTT15=
EXTT16=
EXTT17=
EXTT18=
EXTT19=
EXTT20=
EXTT21=
EXTT22=
PLAYORDER=
